# File produced by Open Asset Import Library (http://www.assimp.sf.net)
# (assimp v3.1.187496374)

mtllib Fuzebox_03_Button.obj.mtl

# 60 vertex positions
v  -0.31996 1.35735 3.48214
v  -0.58779 1.35735 0.809015
v  -0.58779 -1.35735 0.809015
v  -0.31996 -0.65091 3.48214
v  -0.30901 -1.35735 0.951056
v  -0.16821 -0.65091 3.62417
v  4.37112e-08 -1.35735 0.999995
v  1.60557e-07 -0.65091 3.67312
v  0.16821 -0.65091 3.62417
v  0.30902 -1.35735 0.951056
v  0.58779 -1.35735 0.809015
v  0.31997 -0.65091 3.48214
v  0.58779 1.35735 0.809015
v  0.31997 1.35735 3.48214
v  -0.31996 1.35735 -3.48214
v  -0.31996 -0.65091 -3.48214
v  -0.58779 -1.35735 -0.809015
v  -0.58779 1.35735 -0.809015
v  0.58779 -1.35735 -0.809015
v  0.31997 -0.65091 -3.48214
v  0.31997 1.35735 -3.48214
v  0.58779 1.35735 -0.809015
v  0.30902 -1.35735 -0.951054
v  0.16822 -0.65091 -3.62417
v  -4.37116e-08 -1.35735 -1
v  -1.60557e-07 -0.65091 -3.67312
v  -0.30901 -1.35735 -0.951054
v  -0.16821 -0.65091 -3.62417
v  -0.80901 -1.35735 -0.587785
v  -0.80901 1.35735 -0.587785
v  -0.95106 -1.35735 -0.309015
v  -0.95106 1.35735 -0.309015
v  -1 -1.35735 -4.53393e-06
v  -1 1.35735 -4.53393e-06
v  -0.95106 -1.35735 0.309015
v  -0.95106 1.35735 0.309015
v  -0.80901 1.35735 0.587785
v  -0.80901 -1.35735 0.587785
v  -0.16821 1.35735 -3.62417
v  -1.60557e-07 1.35735 -3.67312
v  0.16821 1.35735 -3.62417
v  0.80902 1.35735 -0.587785
v  0.80902 -1.35735 -0.587785
v  0.95106 1.35735 -0.309015
v  0.95106 -1.35735 -0.309015
v  1 1.35735 -4.62135e-06
v  1 -1.35735 -4.62135e-06
v  0.95106 1.35735 0.309015
v  0.95106 -1.35735 0.309015
v  0.80902 1.35735 0.587785
v  0.80902 -1.35735 0.587785
v  0.16821 1.35735 3.62417
v  1.60557e-07 1.35735 3.67312
v  -0.16822 1.35735 3.62417
v  4.37112e-08 1.35735 0.999995
v  -0.30901 1.35735 -0.951054
v  0.30902 1.35735 -0.951054
v  -4.37116e-08 1.35735 -1
v  -0.30901 1.35735 0.951056
v  0.30902 1.35735 0.951056

# 112 UV coordinates
vt 0.165649 0.0830078 0
vt 0.244019 0.0830078 0
vt 0.244019 0.162598 0
vt 0.165649 0.14209 0
vt 0.875977 0.290039 0
vt 0.85498 0.211914 0
vt 0.86377 0.214355 0
vt 0.881348 0.293457 0
vt 0.873047 0.214355 0
vt 0.88623 0.293945 0
vt 0.891113 0.291992 0
vt 0.881836 0.211426 0
vt 0.88916 0.206055 0
vt 0.89502 0.287109 0
vt 0.0648193 0.162598 0
vt 0.0648193 0.0830078 0
vt 0.143188 0.0830078 0
vt 0.143188 0.14209 0
vt 0.401855 0.856812 0
vt 0.460449 0.856812 0
vt 0.481201 0.935181 0
vt 0.401855 0.935181 0
vt 0.481201 0.755981 0
vt 0.460449 0.834351 0
vt 0.401855 0.834351 0
vt 0.401855 0.755981 0
vt 0.859863 0.0810547 0
vt 0.881348 0.15918 0
vt 0.872559 0.156738 0
vt 0.854492 0.0776367 0
vt 0.863281 0.156738 0
vt 0.849609 0.0771484 0
vt 0.854492 0.159668 0
vt 0.844727 0.0795898 0
vt 0.847168 0.165039 0
vt 0.84082 0.0839844 0
vt 0.481201 0.944336 0
vt 0.401855 0.944336 0
vt 0.481201 0.953461 0
vt 0.401855 0.953461 0
vt 0.481201 0.962616 0
vt 0.401855 0.962616 0
vt 0.481201 0.971725 0
vt 0.401855 0.971725 0
vt 0.401855 0.980865 0
vt 0.481201 0.980865 0
vt 0.401855 0.990005 0
vt 0.481201 0.990005 0
vt 0.401855 0.850708 0
vt 0.460449 0.850708 0
vt 0.401855 0.845581 0
vt 0.460449 0.845581 0
vt 0.401855 0.840454 0
vt 0.460449 0.840454 0
vt 0.00999451 0.162598 0
vt 0.00999451 0.0830078 0
vt 0.0191345 0.0830078 0
vt 0.0191345 0.162598 0
vt 0.0282745 0.0830078 0
vt 0.0282745 0.162598 0
vt 0.037384 0.0830078 0
vt 0.037384 0.162598 0
vt 0.0465393 0.0830078 0
vt 0.0465393 0.162598 0
vt 0.0556641 0.0830078 0
vt 0.0556641 0.162598 0
vt 0.149292 0.14209 0
vt 0.149292 0.0830078 0
vt 0.154419 0.14209 0
vt 0.154419 0.0830078 0
vt 0.159546 0.14209 0
vt 0.159546 0.0830078 0
vt 0.614746 0.15332 0
vt 0.606445 0.156738 0
vt 0.597168 0.157227 0
vt 0.588379 0.154297 0
vt 0.620605 0.106445 0
vt 0.629395 0.12207 0
vt 0.62207 0.147949 0
vt 0.571777 0.124512 0
vt 0.580566 0.149414 0
vt 0.50293 0.157227 0
vt 0.497803 0.15332 0
vt 0.575195 0.14209 0
vt 0.571777 0.133789 0
vt 0.495605 0.148926 0
vt 0.49585 0.144043 0
vt 0.499268 0.138672 0
vt 0.574219 0.115723 0
vt 0.594727 0.0991211 0
vt 0.579102 0.108398 0
vt 0.586426 0.102539 0
vt 0.612793 0.101562 0
vt 0.604004 0.0991211 0
vt 0.69873 0.0991211 0
vt 0.703613 0.102539 0
vt 0.625977 0.11377 0
vt 0.706055 0.106934 0
vt 0.626953 0.140137 0
vt 0.705566 0.112305 0
vt 0.629395 0.131348 0
vt 0.702148 0.117188 0
vt 0.896973 0.189941 0
vt 0.894531 0.19873 0
vt 0.894043 0.171875 0
vt 0.888672 0.164551 0
vt 0.847656 0.206543 0
vt 0.896973 0.180664 0
vt 0.842285 0.199219 0
vt 0.839355 0.19043 0
vt 0.839355 0.181152 0
vt 0.841797 0.172852 0

# 38 vertex normals
vn -0.995221 0.00390277 0.0975707
vn -0.177057 -0.948239 0.263618
vn -0.0590738 -0.964874 0.255987
vn 0.0512197 -0.965293 0.256098
vn 0.169419 -0.949533 0.263978
vn 0.995146 0.00393332 0.0983346
vn -0.994434 0.00389968 -0.105293
vn 0.994346 0.00393016 -0.106116
vn 0.169062 -0.947535 -0.271286
vn 0.051115 -0.963321 -0.263439
vn -0.0589533 -0.962904 -0.263325
vn -0.176685 -0.946248 -0.270918
vn -0.707101 0.00390658 -0.707101
vn -0.807885 0.00390277 -0.589327
vn -0.950998 0.00391351 -0.309172
vn -0.999985 0.00392145 -0.00392145
vn -0.953278 0.0039229 0.302068
vn -0.811602 0.00392072 0.584197
vn -0.711019 0.00392822 0.703162
vn -0.683286 0.00390443 -0.73014
vn -0.494876 0.0038966 -0.868955
vn -0.00392145 0.00392145 -0.999985
vn 0.488957 0.0039116 -0.872299
vn 0.67909 0.00392531 -0.734045
vn 0.703162 0.00392822 -0.711019
vn 0.805148 0.00392749 -0.59306
vn 0.950241 0.00394285 -0.31149
vn 0.999985 0.00392145 -0.00392145
vn 0.952554 0.00395245 0.304343
vn 0.8089 0.00394579 0.587933
vn 0.707101 0.00395023 0.707101
vn 0.492313 0.00393844 0.870409
vn 0.683016 0.00394801 0.730393
vn -0.00392145 0.00392145 0.999985
vn -0.498246 0.00392314 0.867027
vn -0.687195 0.00392677 0.726463
vn -0.00392145 0.999985 -0.00392145
vn -0.00392145 -0.999985 -0.00392145

# Mesh 'Fuzebox_03_Button' with 116 faces
g Fuzebox_03_Button
usemtl Switch_Mat_Inst
f  1/1/1 2/2/1 3/3/1
f  3/3/1 4/4/1 1/1/1
f  4/5/2 3/6/2 5/7/2
f  5/7/2 6/8/2 4/5/2
f  5/7/3 7/9/3 8/10/3
f  8/10/3 6/8/3 5/7/3
f  9/11/4 8/10/4 7/9/4
f  7/9/4 10/12/4 9/11/4
f  10/12/5 11/13/5 12/14/5
f  12/14/5 9/11/5 10/12/5
f  11/15/6 13/16/6 14/17/6
f  14/17/6 12/18/6 11/15/6
f  15/19/7 16/20/7 17/21/7
f  17/21/7 18/22/7 15/19/7
f  19/23/8 20/24/8 21/25/8
f  21/25/8 22/26/8 19/23/8
f  20/27/9 19/28/9 23/29/9
f  23/29/9 24/30/9 20/27/9
f  23/29/10 25/31/10 26/32/10
f  26/32/10 24/30/10 23/29/10
f  25/31/11 27/33/11 28/34/11
f  28/34/11 26/32/11 25/31/11
f  28/34/12 27/33/12 17/35/12
f  17/35/12 16/36/12 28/34/12
f  18/22/13 17/21/13 29/37/14
f  29/37/14 30/38/14 18/22/13
f  30/38/14 29/37/14 31/39/15
f  31/39/15 32/40/15 30/38/14
f  32/40/15 31/39/15 33/41/16
f  33/41/16 34/42/16 32/40/15
f  34/42/16 33/41/16 35/43/17
f  35/43/17 36/44/17 34/42/16
f  37/45/18 36/44/17 35/43/17
f  35/43/17 38/46/18 37/45/18
f  2/47/19 37/45/18 38/46/18
f  38/46/18 3/48/19 2/47/19
f  16/20/20 15/19/20 39/49/21
f  39/49/21 28/50/21 16/20/20
f  28/50/21 39/49/21 40/51/22
f  40/51/22 26/52/22 28/50/21
f  26/52/22 40/51/22 41/53/23
f  41/53/23 24/54/23 26/52/22
f  24/54/23 41/53/23 21/25/24
f  21/25/24 20/24/24 24/54/23
f  19/55/25 22/56/25 42/57/26
f  42/57/26 43/58/26 19/55/25
f  43/58/26 42/57/26 44/59/27
f  44/59/27 45/60/27 43/58/26
f  45/60/27 44/59/27 46/61/28
f  46/61/28 47/62/28 45/60/27
f  47/62/28 46/61/28 48/63/29
f  48/63/29 49/64/29 47/62/28
f  49/64/29 48/63/29 50/65/30
f  50/65/30 51/66/30 49/64/29
f  51/66/30 50/65/30 13/16/31
f  13/16/31 11/15/31 51/66/30
f  9/67/32 12/18/33 14/17/33
f  14/17/33 52/68/32 9/67/32
f  8/69/34 9/67/32 52/68/32
f  52/68/32 53/70/34 8/69/34
f  6/71/35 8/69/34 53/70/34
f  53/70/34 54/72/35 6/71/35
f  6/71/35 54/72/35 1/1/36
f  1/1/36 4/4/36 6/71/35
f  48/73/37 46/74/37 44/75/37
f  44/75/37 42/76/37 48/73/37
f  2/77/37 48/73/37 42/76/37
f  55/78/37 48/73/37 2/77/37
f  50/79/37 48/73/37 55/78/37
f  42/76/37 56/80/37 2/77/37
f  56/80/37 42/76/37 22/81/37
f  22/81/37 21/82/37 41/83/37
f  41/83/37 57/84/37 22/81/37
f  22/81/37 57/84/37 58/85/37
f  22/81/37 58/85/37 56/80/37
f  57/84/37 41/83/37 40/86/37
f  40/86/37 58/85/37 57/84/37
f  56/80/37 58/85/37 40/86/37
f  40/86/37 39/87/37 56/80/37
f  56/80/37 39/87/37 15/88/37
f  15/88/37 18/89/37 56/80/37
f  34/90/37 56/80/37 18/89/37
f  18/89/37 30/91/37 34/90/37
f  2/77/37 56/80/37 34/90/37
f  30/91/37 32/92/37 34/90/37
f  34/90/37 37/93/37 2/77/37
f  34/90/37 36/94/37 37/93/37
f  2/77/37 1/95/37 54/96/37
f  54/96/37 59/97/37 2/77/37
f  2/77/37 59/97/37 55/78/37
f  55/78/37 59/97/37 54/96/37
f  54/96/37 53/98/37 55/78/37
f  55/78/37 13/99/37 50/79/37
f  55/78/37 53/98/37 52/100/37
f  60/101/37 13/99/37 55/78/37
f  52/100/37 60/101/37 55/78/37
f  14/102/37 13/99/37 60/101/37
f  60/101/37 52/100/37 14/102/37
f  11/13/38 10/12/38 7/9/38
f  7/9/38 5/7/38 11/13/38
f  49/103/38 51/104/38 11/13/38
f  49/103/38 11/13/38 45/105/38
f  45/105/38 11/13/38 5/7/38
f  5/7/38 43/106/38 45/105/38
f  5/7/38 3/6/38 38/107/38
f  38/107/38 43/106/38 5/7/38
f  45/105/38 47/108/38 49/103/38
f  43/106/38 38/107/38 35/109/38
f  35/109/38 33/110/38 43/106/38
f  19/28/38 43/106/38 33/110/38
f  33/110/38 27/33/38 19/28/38
f  27/33/38 33/110/38 31/111/38
f  23/29/38 19/28/38 27/33/38
f  27/33/38 25/31/38 23/29/38
f  31/111/38 29/112/38 27/33/38
f  29/112/38 17/35/38 27/33/38

