# File produced by Open Asset Import Library (http://www.assimp.sf.net)
# (assimp v3.1.187496374)

mtllib Fuzebox_01_Button.obj.mtl

# 72 vertex positions
v  2.98775 -1.52717 11.3636
v  2.98775 -1.52717 0.555948
v  4.16249 -1.52717 11.3636
v  4.16249 -1.52717 0.555948
v  4.16249 -1.04287 12.3636
v  4.16249 1.04287 12.3636
v  2.98775 1.04287 12.3636
v  2.98775 -1.04287 12.3636
v  4.16249 1.52717 11.3636
v  4.16249 1.52716 0.555948
v  2.98775 1.52717 11.3636
v  2.98775 1.52716 0.555948
v  -2.98774 -1.52717 0.555948
v  -2.98774 -1.52717 11.3636
v  -4.16248 -1.52717 11.3636
v  -4.16248 -1.52717 0.555948
v  -4.16248 1.04287 12.3636
v  -4.16248 -1.04287 12.3636
v  -2.98774 1.04287 12.3636
v  -2.98774 -1.04287 12.3636
v  -2.98774 1.52717 11.3636
v  -4.16248 1.52716 0.555948
v  -4.16248 1.52717 11.3636
v  -2.98774 1.52716 0.555948
v  -2.98774 -0.851775 -0.734311
v  -4.16248 -0.851775 -0.734311
v  -2.98774 0.851785 -0.734311
v  -4.16248 0.851785 -0.734311
v  4.16249 -0.851775 -0.734311
v  2.98775 -0.851775 -0.734311
v  4.16249 0.851785 -0.734311
v  2.98775 0.851785 -0.734311
v  3.22973 -0.131035 0.487149
v  -3.20969 -0.131035 0.487149
v  3.22973 -0.388005 0.300427
v  -3.20969 -0.388005 0.300427
v  3.22973 -0.486155 -0.00167236
v  -3.20969 -0.486155 -0.00167236
v  3.22973 -0.388005 -0.303772
v  -3.20969 -0.388005 -0.303772
v  -3.20969 -0.131035 -0.49046
v  3.22973 -0.131035 -0.49046
v  3.22973 0.186595 -0.49046
v  -3.20969 0.186595 -0.49046
v  3.22973 0.443585 -0.303772
v  -3.20969 0.443585 -0.303772
v  3.22973 0.541725 -0.00167236
v  -3.20969 0.541725 -0.00167236
v  -3.20969 0.443585 0.300427
v  3.22973 0.443585 0.300427
v  -3.20969 0.186595 0.487149
v  3.22973 0.186595 0.487149
v  3.22973 0.186605 12.2675
v  -3.20969 -0.131035 12.2675
v  3.22973 -0.131035 12.2675
v  -3.20969 0.186605 12.2675
v  3.22973 0.443575 12.0808
v  -3.20969 0.443585 12.0808
v  3.22973 0.541735 11.7787
v  -3.20969 0.541735 11.7787
v  3.22973 0.443575 11.4766
v  -3.20969 0.443585 11.4766
v  -3.20969 0.186605 11.29
v  3.22973 0.186605 11.29
v  3.22973 -0.131035 11.29
v  -3.20969 -0.131035 11.29
v  3.22973 -0.388005 11.4766
v  -3.20969 -0.388005 11.4766
v  3.22973 -0.486175 11.7787
v  -3.20969 -0.486175 11.7787
v  3.22973 -0.388005 12.0808
v  -3.20969 -0.388005 12.0808

# 104 UV coordinates
vt 0.599121 0.776855 0
vt 0.492432 0.776855 0
vt 0.599121 0.765137 0
vt 0.492432 0.765137 0
vt 0.609375 0.760376 0
vt 0.609375 0.739746 0
vt 0.620605 0.739746 0
vt 0.620605 0.760376 0
vt 0.599121 0.735107 0
vt 0.492432 0.735107 0
vt 0.599121 0.723389 0
vt 0.492432 0.723389 0
vt 0.638672 0.7677 0
vt 0.745605 0.7677 0
vt 0.745605 0.779297 0
vt 0.638672 0.779297 0
vt 0.755371 0.80481 0
vt 0.755371 0.78418 0
vt 0.76709 0.80481 0
vt 0.76709 0.78418 0
vt 0.745605 0.821167 0
vt 0.638672 0.80957 0
vt 0.745605 0.80957 0
vt 0.638672 0.821167 0
vt 0.614258 0.729248 0
vt 0.604492 0.724609 0
vt 0.614258 0.770874 0
vt 0.604492 0.775635 0
vt 0.760742 0.815186 0
vt 0.750977 0.820068 0
vt 0.760742 0.773682 0
vt 0.750977 0.768921 0
vt 0.614258 0.786011 0
vt 0.625977 0.786011 0
vt 0.614258 0.802856 0
vt 0.625977 0.802856 0
vt 0.479736 0.758545 0
vt 0.468018 0.758545 0
vt 0.479736 0.741699 0
vt 0.468018 0.741699 0
vt 0.620605 0.775757 0
vt 0.633301 0.769043 0
vt 0.633301 0.819824 0
vt 0.620605 0.813232 0
vt 0.474365 0.768799 0
vt 0.487061 0.775513 0
vt 0.487061 0.724609 0
vt 0.474365 0.731445 0
vt 0.902344 0.111816 0
vt 0.902344 0.0478516 0
vt 0.905762 0.111816 0
vt 0.905762 0.0478516 0
vt 0.908691 0.111816 0
vt 0.908691 0.0478516 0
vt 0.912109 0.111816 0
vt 0.912109 0.0478516 0
vt 0.915039 0.0478516 0
vt 0.915039 0.111816 0
vt 0.918457 0.111816 0
vt 0.918457 0.0478516 0
vt 0.921387 0.111816 0
vt 0.921387 0.0478516 0
vt 0.924316 0.111816 0
vt 0.924316 0.0478516 0
vt 0.927734 0.0478516 0
vt 0.927734 0.111816 0
vt 0.930664 0.0478516 0
vt 0.930664 0.111816 0
vt 0.934082 0.0478516 0
vt 0.934082 0.111816 0
vt 0.930664 0.177734 0
vt 0.934082 0.114258 0
vt 0.934082 0.177734 0
vt 0.930664 0.114258 0
vt 0.927734 0.177734 0
vt 0.927734 0.114258 0
vt 0.924316 0.177734 0
vt 0.924316 0.114258 0
vt 0.921387 0.177734 0
vt 0.921387 0.114258 0
vt 0.918457 0.114258 0
vt 0.918457 0.177734 0
vt 0.915039 0.177734 0
vt 0.915039 0.114258 0
vt 0.912109 0.177734 0
vt 0.912109 0.114258 0
vt 0.908691 0.177734 0
vt 0.908691 0.114258 0
vt 0.905762 0.177734 0
vt 0.905762 0.114258 0
vt 0.902344 0.114258 0
vt 0.902344 0.177734 0
vt 0.609375 0.802246 0
vt 0.609375 0.781616 0
vt 0.599121 0.807007 0
vt 0.492432 0.807007 0
vt 0.479736 0.783447 0
vt 0.479736 0.800293 0
vt 0.755371 0.742432 0
vt 0.755371 0.762939 0
vt 0.745605 0.737549 0
vt 0.638672 0.737549 0
vt 0.625977 0.760986 0
vt 0.625977 0.744141 0

# 18 vertex normals
vn -0.00392145 -0.999985 -0.00392145
vn -0.00392145 0.00392145 0.999985
vn -0.00392145 0.999985 -0.00392145
vn -0.00390182 0.901333 0.433108
vn -0.00392943 -0.899854 0.436174
vn -0.00392145 0.00392145 -0.999985
vn -0.0039287 -0.883972 -0.467523
vn -0.00390158 0.885672 -0.464295
vn -0.00395245 -0.304343 0.952554
vn -0.00394579 -0.8089 0.587933
vn -0.00392749 -0.805148 -0.59306
vn -0.0039229 -0.302068 -0.953278
vn -0.00391351 0.309172 -0.950998
vn -0.00390277 0.807885 -0.589327
vn -0.00392072 0.811602 0.584197
vn -0.00394285 0.31149 0.950241
vn 0.999985 0.00392145 -0.00392145
vn -0.999985 0.00392145 -0.00392145

# Mesh 'Fuzebox_01_Button' with 96 faces
g Fuzebox_01_Button
usemtl Fuzebox_01_Inst
f  1/1/1 2/2/1 3/3/1
f  3/3/1 2/2/1 4/4/1
f  5/5/2 6/6/2 7/7/2
f  7/7/2 8/8/2 5/5/2
f  9/9/3 10/10/3 11/11/3
f  11/11/3 10/10/3 12/12/3
f  13/13/1 14/14/1 15/15/1
f  15/15/1 16/16/1 13/13/1
f  17/17/2 18/18/2 19/19/2
f  19/19/2 18/18/2 20/20/2
f  21/21/3 22/22/3 23/23/3
f  22/22/3 21/21/3 24/24/3
f  6/6/4 9/9/4 7/25/4
f  7/25/4 9/9/4 11/26/4
f  5/5/5 8/27/5 3/3/5
f  8/27/5 1/28/5 3/3/5
f  19/29/4 21/30/4 17/17/4
f  17/17/4 21/30/4 23/23/4
f  20/31/5 18/18/5 14/32/5
f  18/18/5 15/15/5 14/32/5
f  25/33/6 26/34/6 27/35/6
f  26/34/6 28/36/6 27/35/6
f  29/37/6 30/38/6 31/39/6
f  30/38/6 32/40/6 31/39/6
f  16/16/7 25/41/7 13/42/7
f  25/41/7 16/16/7 26/34/7
f  22/22/8 24/43/8 27/44/8
f  22/22/8 27/44/8 28/36/8
f  30/45/7 4/4/7 2/46/7
f  4/4/7 30/45/7 29/37/7
f  10/10/8 31/39/8 12/47/8
f  12/47/8 31/39/8 32/48/8
f  33/49/9 34/50/9 35/51/10
f  36/52/10 35/51/10 34/50/9
f  35/51/10 36/52/10 37/53/1
f  38/54/1 37/53/1 36/52/10
f  38/54/1 39/55/11 37/53/1
f  39/55/11 38/54/1 40/56/11
f  39/55/11 40/56/11 41/57/12
f  39/55/11 41/57/12 42/58/12
f  42/58/12 41/57/12 43/59/13
f  44/60/13 43/59/13 41/57/12
f  43/59/13 44/60/13 45/61/14
f  46/62/14 45/61/14 44/60/13
f  45/61/14 46/62/14 47/63/3
f  48/64/3 47/63/3 46/62/14
f  49/65/15 47/63/3 48/64/3
f  49/65/15 50/66/15 47/63/3
f  50/66/15 49/65/15 51/67/16
f  50/66/15 51/67/16 52/68/16
f  52/68/16 51/67/16 34/69/9
f  52/68/16 34/69/9 33/70/9
f  53/71/16 54/72/9 55/73/9
f  54/72/9 53/71/16 56/74/16
f  57/75/15 56/74/16 53/71/16
f  56/74/16 57/75/15 58/76/15
f  58/76/15 57/75/15 59/77/3
f  58/76/15 59/77/3 60/78/3
f  60/78/3 59/77/3 61/79/14
f  60/78/3 61/79/14 62/80/14
f  62/80/14 61/79/14 63/81/13
f  64/82/13 63/81/13 61/79/14
f  65/83/12 63/81/13 64/82/13
f  65/83/12 66/84/12 63/81/13
f  67/85/11 66/84/12 65/83/12
f  67/85/11 68/86/11 66/84/12
f  69/87/1 68/86/11 67/85/11
f  69/87/1 70/88/1 68/86/11
f  71/89/10 70/88/1 69/87/1
f  71/89/10 72/90/10 70/88/1
f  72/90/10 71/89/10 54/91/9
f  55/92/9 54/91/9 71/89/10
f  3/3/17 6/6/17 5/5/17
f  3/3/17 9/9/17 6/6/17
f  10/10/17 9/9/17 3/3/17
f  3/3/17 4/4/17 10/10/17
f  29/37/17 10/10/17 4/4/17
f  10/10/17 29/37/17 31/39/17
f  7/93/18 1/1/18 8/94/18
f  1/1/18 7/93/18 11/95/18
f  12/96/18 1/1/18 11/95/18
f  1/1/18 12/96/18 2/2/18
f  2/2/18 12/96/18 30/97/18
f  30/97/18 12/96/18 32/98/18
f  14/14/17 19/99/17 20/100/17
f  19/99/17 14/14/17 21/101/17
f  14/14/17 24/102/17 21/101/17
f  24/102/17 14/14/17 13/13/17
f  25/103/17 24/102/17 13/13/17
f  24/102/17 25/103/17 27/104/17
f  17/17/18 15/15/18 18/18/18
f  15/15/18 17/17/18 23/23/18
f  23/23/18 22/22/18 15/15/18
f  15/15/18 22/22/18 16/16/18
f  16/16/18 22/22/18 26/34/18
f  26/34/18 22/22/18 28/36/18

