# File produced by Open Asset Import Library (http://www.assimp.sf.net)
# (assimp v3.1.187496374)

mtllib Fuzebox_02_button.obj.mtl

# 20 vertex positions
v  -0.70328 -0.132608 -0.915676
v  0.70328 -0.132608 -0.915676
v  0.70328 -0.345015 -0.858451
v  -0.70328 -0.345015 -0.858451
v  0.70328 -0.20209 -0.279185
v  -0.70328 -0.20209 -0.279185
v  -0.70328 0.0346172 -0.342931
v  0.70328 0.0346172 -0.342931
v  -0.70328 -0.34017 -0.0507434
v  -0.70328 -0.045913 0.331802
v  -0.70328 0.336633 0.0375457
v  -0.70328 0.26873 -0.214674
v  -0.70328 -0.272267 0.201476
v  -0.70328 0.206309 0.263909
v  0.70328 -0.045913 0.331802
v  0.70328 0.206309 0.263909
v  0.70328 -0.272267 0.201476
v  0.70328 -0.34017 -0.0507434
v  0.70328 0.336633 0.0375457
v  0.70328 0.26873 -0.214674

# 38 UV coordinates
vt 0.950195 0.370117 0
vt 0.908691 0.370117 0
vt 0.908691 0.36377 0
vt 0.950195 0.36377 0
vt 0.908691 0.346191 0
vt 0.950195 0.346191 0
vt 0.950195 0.387207 0
vt 0.908691 0.387207 0
vt 0.98584 0.315918 0
vt 0.98584 0.322754 0
vt 0.968262 0.322754 0
vt 0.968262 0.315918 0
vt 0.962891 0.328613 0
vt 0.950195 0.323242 0
vt 0.955566 0.310059 0
vt 0.962891 0.310059 0
vt 0.955566 0.328613 0
vt 0.950195 0.31543 0
vt 0.908691 0.323242 0
vt 0.908691 0.31543 0
vt 0.908691 0.330566 0
vt 0.950195 0.330566 0
vt 0.908691 0.338379 0
vt 0.950195 0.338379 0
vt 0.950195 0.402832 0
vt 0.950195 0.410645 0
vt 0.908691 0.410645 0
vt 0.908691 0.402832 0
vt 0.950195 0.39502 0
vt 0.908691 0.39502 0
vt 0.890625 0.322754 0
vt 0.873047 0.322754 0
vt 0.873047 0.315918 0
vt 0.890625 0.315918 0
vt 0.895996 0.310059 0
vt 0.90332 0.328613 0
vt 0.895996 0.328613 0
vt 0.90332 0.310059 0

# 13 vertex normals
vn -0.00391519 -0.254491 -0.967067
vn -0.0039304 -0.970825 0.239758
vn -0.0039116 0.958356 -0.285551
vn -0.999985 0.00392145 -0.00392145
vn -0.00395393 -0.122574 0.992452
vn -0.00392072 0.615563 0.788078
vn -0.00393967 -0.791885 0.610657
vn -0.00394138 -0.989301 -0.145833
vn -0.00392895 -0.852595 -0.522558
vn -0.00392314 0.992569 0.121619
vn -0.00390182 0.784277 -0.620398
vn -0.00389968 0.479668 -0.877441
vn 0.999985 0.00392145 -0.00392145

# Mesh 'Fuzebox_02_button' with 36 faces
g Fuzebox_02_button
usemtl Switch_Mat_Inst
f  1/1/1 2/2/1 3/3/1
f  3/3/1 4/4/1 1/1/1
f  4/4/2 3/3/2 5/5/2
f  5/5/2 6/6/2 4/4/2
f  1/1/3 7/7/3 8/8/3
f  8/8/3 2/2/3 1/1/3
f  1/9/4 4/10/4 6/11/4
f  6/11/4 7/12/4 1/9/4
f  6/11/4 9/13/4 7/12/4
f  10/14/4 7/12/4 9/13/4
f  11/15/4 7/12/4 10/14/4
f  11/15/4 12/16/4 7/12/4
f  9/13/4 13/17/4 10/14/4
f  10/14/4 14/18/4 11/15/4
f  15/19/5 16/20/6 14/18/6
f  14/18/6 10/14/5 15/19/5
f  17/21/7 15/19/5 10/14/5
f  10/14/5 13/22/7 17/21/7
f  18/23/8 17/21/7 13/22/7
f  13/22/7 9/24/8 18/23/8
f  18/23/8 9/24/8 6/6/9
f  6/6/9 5/5/9 18/23/8
f  11/25/10 14/26/6 16/27/6
f  16/27/6 19/28/10 11/25/10
f  12/29/11 11/25/10 19/28/10
f  19/28/10 20/30/11 12/29/11
f  7/7/12 12/29/11 20/30/11
f  20/30/11 8/8/12 7/7/12
f  5/31/13 3/32/13 2/33/13
f  2/33/13 8/34/13 5/31/13
f  8/34/13 20/35/13 5/31/13
f  16/20/13 5/31/13 20/35/13
f  17/36/13 5/31/13 16/20/13
f  17/36/13 18/37/13 5/31/13
f  20/35/13 19/38/13 16/20/13
f  16/20/13 15/19/13 17/36/13

