# File produced by Open Asset Import Library (http://www.assimp.sf.net)
# (assimp v3.1.187496374)

mtllib Fuzebox_03_Door.obj.mtl

# 16 vertex positions
v  -17.1453 -0.347112 -0.0775574
v  -17.1453 -0.347112 -17.9155
v  17.1453 -0.347112 -17.9155
v  17.1453 -0.347112 -0.0775574
v  17.382 -0.0353422 0.159137
v  -17.382 -0.0353422 0.159137
v  -17.382 -0.0353422 -18.1522
v  17.382 -0.0353422 -18.1522
v  -17.052 -0.00297222 -0.0146729
v  17.052 -0.00297222 -0.0146729
v  -17.052 -0.00297222 -17.9784
v  17.052 -0.00297222 -17.9784
v  16.571 -0.215862 -0.268024
v  16.571 -0.215862 -17.7251
v  -16.571 -0.215872 -17.7251
v  -16.571 -0.215872 -0.268024

# 30 UV coordinates
vt 0.980469 0.127441 0
vt 0.980469 0.257324 0
vt 0.731934 0.257324 0
vt 0.731934 0.127441 0
vt 0.72998 0.125 0
vt 0.982422 0.125 0
vt 0.983398 0.125977 0
vt 0.983398 0.258789 0
vt 0.982422 0.259766 0
vt 0.72998 0.259766 0
vt 0.729004 0.258789 0
vt 0.729004 0.125977 0
vt 0.97998 0.123535 0
vt 0.732422 0.123535 0
vt 0.98584 0.126953 0
vt 0.98584 0.257324 0
vt 0.97998 0.26123 0
vt 0.732422 0.26123 0
vt 0.726562 0.257324 0
vt 0.726562 0.126953 0
vt 0.73584 0.390137 0
vt 0.73584 0.263672 0
vt 0.976562 0.263672 0
vt 0.976562 0.390137 0
vt 0.97998 0.392578 0
vt 0.732422 0.392578 0
vt 0.722656 0.255859 0
vt 0.722656 0.128906 0
vt 0.989746 0.128906 0
vt 0.989746 0.255859 0

# 14 vertex normals
vn -0.00392145 -0.999985 -0.00392145
vn -0.00393381 -0.601882 0.798575
vn -0.801399 -0.598117 -0.0039092
vn -0.0039092 -0.598117 -0.801399
vn 0.798575 -0.601882 -0.00393381
vn -0.00392145 0.984299 0.176468
vn -0.0975706 0.995221 -0.00390277
vn -0.00391591 0.982909 -0.184051
vn 0.0898308 0.995949 -0.00390562
vn -0.00392145 0.999985 -0.00392145
vn -0.0038914 0.766618 -0.642091
vn -0.407937 0.913002 -0.00388505
vn -0.00391088 0.770455 0.637483
vn 0.401429 0.915882 -0.00389731

# Mesh 'Fuzebox_03_Door' with 28 faces
g Fuzebox_03_Door
usemtl Fuzebox_03_Mat_Inst
f  1/1/1 2/2/1 3/3/1
f  3/3/1 4/4/1 1/1/1
f  5/5/2 6/6/2 1/1/2
f  1/1/2 4/4/2 5/5/2
f  6/7/3 7/8/3 2/2/3
f  2/2/3 1/1/3 6/7/3
f  7/9/4 8/10/4 3/3/4
f  3/3/4 2/2/4 7/9/4
f  8/11/5 5/12/5 4/4/5
f  4/4/5 3/3/5 8/11/5
f  9/13/6 6/6/6 5/5/6
f  5/5/6 10/14/6 9/13/6
f  7/8/7 6/7/7 9/15/7
f  9/15/7 11/16/7 7/8/7
f  7/9/8 11/17/8 12/18/8
f  12/18/8 8/10/8 7/9/8
f  5/12/9 8/11/9 12/19/9
f  12/19/9 10/20/9 5/12/9
f  13/21/10 14/22/10 15/23/10
f  15/23/10 16/24/10 13/21/10
f  13/21/11 16/24/11 9/25/11
f  9/25/11 10/26/11 13/21/11
f  12/19/12 14/27/12 13/28/12
f  13/28/12 10/20/12 12/19/12
f  15/23/13 14/22/13 12/18/13
f  12/18/13 11/17/13 15/23/13
f  9/15/14 16/29/14 15/30/14
f  15/30/14 11/16/14 9/15/14

