# File produced by Open Asset Import Library (http://www.assimp.sf.net)
# (assimp v3.1.187496374)

mtllib KTP_Button.obj.mtl

# 144 vertex positions
v  10.155 -1.56197 11.3998
v  8.98028 -1.56197 11.3998
v  8.98028 -1.56197 0.592139
v  10.155 -1.56197 0.592139
v  8.98028 1.00806 12.3998
v  8.98028 -1.07767 12.3998
v  10.155 -1.07767 12.3998
v  10.155 1.00806 12.3998
v  8.98028 1.49236 0.592139
v  8.98028 1.49235 11.3998
v  10.155 1.49235 11.3998
v  10.155 1.49237 0.592139
v  3.0048 -1.56197 0.592139
v  3.0048 -1.56197 11.3998
v  1.83005 -1.56197 11.3998
v  1.83005 -1.56197 0.592139
v  3.0048 1.00806 12.3998
v  1.83005 1.00806 12.3998
v  1.83005 -1.07767 12.3998
v  3.0048 -1.07767 12.3998
v  3.0048 1.49236 0.592139
v  1.83005 1.49236 0.592139
v  1.83005 1.49236 11.3998
v  3.0048 1.49236 11.3998
v  1.83005 0.816974 -0.69812
v  3.0048 0.816974 -0.69812
v  3.0048 -0.886566 -0.69812
v  1.83005 -0.886566 -0.69812
v  8.98028 0.816974 -0.69812
v  10.155 0.816974 -0.69812
v  10.155 -0.886566 -0.69812
v  8.98028 -0.886566 -0.69812
v  2.78284 0.408771 11.5128
v  2.78284 0.506934 11.8149
v  9.22226 0.506922 11.8149
v  9.22226 0.408771 11.5128
v  2.78284 0.151801 11.3261
v  9.22226 0.151789 11.3261
v  2.78284 -0.165838 11.3261
v  9.22226 -0.165838 11.3261
v  2.78284 -0.422815 11.5128
v  9.22226 -0.422815 11.5128
v  9.22226 -0.520965 11.8149
v  2.78284 -0.520965 11.8149
v  2.78284 -0.422815 12.117
v  9.22226 -0.422815 12.117
v  2.78284 -0.165838 12.3037
v  9.22226 -0.165838 12.3037
v  2.78284 0.151788 12.3037
v  9.22226 0.151789 12.3037
v  2.78284 0.408771 12.117
v  9.22226 0.408771 12.117
v  -9.20225 0.40877 11.5128
v  -9.20225 0.506921 11.8149
v  -2.76283 0.506921 11.8149
v  -2.76283 0.408758 11.5128
v  -9.20225 0.151788 11.3261
v  -2.76283 0.151788 11.3261
v  -9.20225 -0.165845 11.3261
v  -2.76283 -0.165845 11.3261
v  -9.20225 -0.422815 11.5128
v  -2.76283 -0.422815 11.5128
v  -2.76283 -0.520978 11.8149
v  -9.20225 -0.520978 11.8149
v  -9.20225 -0.422815 12.117
v  -2.76283 -0.422815 12.117
v  -9.20225 -0.165845 12.3037
v  -2.76283 -0.165845 12.3037
v  -9.20225 0.151788 12.3037
v  -2.76283 0.151788 12.3037
v  -9.20225 0.40877 12.117
v  -2.76283 0.408758 12.117
v  2.78284 0.408771 -0.267578
v  2.78284 0.506934 0.0345215
v  9.22226 0.506934 0.0345215
v  9.22226 0.408771 -0.267578
v  9.22226 0.151801 -0.454272
v  2.78284 0.151801 -0.454272
v  2.78284 -0.165838 -0.454272
v  9.22226 -0.165838 -0.454272
v  9.22226 -0.422815 -0.267578
v  2.78284 -0.422815 -0.267578
v  2.78284 -0.520965 0.0345215
v  9.22226 -0.520965 0.0345215
v  2.78284 -0.422815 0.336621
v  9.22226 -0.422815 0.336621
v  2.78284 -0.165838 0.52334
v  9.22226 -0.165838 0.52334
v  9.22226 0.151801 0.52334
v  2.78284 0.151801 0.52334
v  9.22226 0.408771 0.336621
v  2.78284 0.408771 0.336621
v  -10.155 1.00805 12.3998
v  -8.9803 1.00805 12.3998
v  -8.9803 1.49235 11.3998
v  -10.155 1.49235 11.3998
v  -10.155 -1.07768 12.3998
v  -10.155 -1.56197 11.3998
v  -10.155 1.49235 0.592139
v  -8.9803 1.49235 0.592139
v  -8.9803 -1.07768 12.3998
v  -8.9803 -1.56197 11.3998
v  -8.9803 -1.56197 0.592139
v  -10.155 -1.56197 0.592139
v  -10.155 0.816973 -0.69812
v  -10.155 -0.886579 -0.69812
v  -8.9803 0.816974 -0.69812
v  -8.9803 -0.886579 -0.69812
v  -9.20225 0.40877 -0.267578
v  -9.20225 0.506921 0.0345215
v  -2.76283 0.506921 0.0345215
v  -2.76283 0.408771 -0.267578
v  -2.76283 0.151788 -0.454272
v  -9.20225 0.151788 -0.454272
v  -9.20225 -0.165845 -0.454272
v  -2.76283 -0.165845 -0.454272
v  -2.76283 -0.422815 -0.267578
v  -9.20225 -0.422815 -0.267578
v  -9.20225 -0.520966 0.0345215
v  -2.76283 -0.520966 0.0345215
v  -9.20225 -0.422815 0.336621
v  -2.76283 -0.422815 0.336621
v  -9.20225 -0.165845 0.52334
v  -2.76283 -0.165845 0.52334
v  -2.76283 0.151788 0.52334
v  -9.20225 0.151788 0.52334
v  -2.76283 0.408771 0.336621
v  -9.20225 0.40877 0.336621
v  -3.00481 1.00805 12.3998
v  -3.00481 -1.07768 12.3998
v  -1.83007 -1.07768 12.3998
v  -1.83007 1.00805 12.3998
v  -3.00481 -1.56197 11.3998
v  -1.83007 -1.56197 11.3998
v  -1.83007 1.49235 11.3998
v  -3.00481 -1.56197 0.592139
v  -1.83007 -1.56197 0.592139
v  -1.83007 1.49235 0.592139
v  -3.00481 1.49235 11.3998
v  -3.00481 1.49235 0.592139
v  -1.83007 -0.886578 -0.69812
v  -1.83007 0.816974 -0.69812
v  -3.00481 0.816974 -0.69812
v  -3.00481 -0.886579 -0.69812

# 208 UV coordinates
vt 0.243774 0.665527 0
vt 0.24585 0.665527 0
vt 0.24585 0.684814 0
vt 0.243774 0.684814 0
vt 0.250244 0.663818 0
vt 0.246704 0.663818 0
vt 0.246704 0.661621 0
vt 0.250244 0.661621 0
vt 0.251221 0.684814 0
vt 0.251221 0.665527 0
vt 0.253174 0.665527 0
vt 0.253174 0.684814 0
vt 0.0461731 0.672119 0
vt 0.0269623 0.672119 0
vt 0.0269623 0.669922 0
vt 0.0461731 0.669922 0
vt 0.0230865 0.665527 0
vt 0.025177 0.665527 0
vt 0.025177 0.669189 0
vt 0.0230865 0.669189 0
vt 0.0461731 0.662598 0
vt 0.0461731 0.664551 0
vt 0.0269623 0.664551 0
vt 0.0269623 0.662598 0
vt 0.253174 0.664551 0
vt 0.252197 0.662842 0
vt 0.244751 0.662842 0
vt 0.243896 0.664551 0
vt 0.0242767 0.663574 0
vt 0.0260468 0.662598 0
vt 0.0260468 0.671875 0
vt 0.0242767 0.670898 0
vt 0.0484619 0.665771 0
vt 0.0505371 0.665771 0
vt 0.0505371 0.668701 0
vt 0.0484619 0.668701 0
vt 0.25 0.687012 0
vt 0.25 0.688965 0
vt 0.24707 0.688965 0
vt 0.24707 0.687012 0
vt 0.0471497 0.671875 0
vt 0.0494385 0.670654 0
vt 0.0471497 0.662598 0
vt 0.0494385 0.663818 0
vt 0.245117 0.687988 0
vt 0.244019 0.685547 0
vt 0.25293 0.685547 0
vt 0.251953 0.687988 0
vt 0.0484619 0.658203 0
vt 0.0484619 0.661377 0
vt 0.0461731 0.656982 0
vt 0.0269623 0.656982 0
vt 0.025177 0.657959 0
vt 0.025177 0.661621 0
vt 0.186523 0.774414 0
vt 0.187134 0.774414 0
vt 0.187134 0.785889 0
vt 0.186523 0.785889 0
vt 0.186035 0.774414 0
vt 0.186035 0.785889 0
vt 0.185425 0.774414 0
vt 0.185425 0.785889 0
vt 0.184937 0.774414 0
vt 0.184937 0.785889 0
vt 0.184326 0.785889 0
vt 0.184326 0.774414 0
vt 0.183716 0.774414 0
vt 0.183716 0.785889 0
vt 0.183228 0.774414 0
vt 0.183228 0.785889 0
vt 0.182617 0.774414 0
vt 0.182617 0.785889 0
vt 0.182129 0.774414 0
vt 0.182129 0.785889 0
vt 0.181519 0.774414 0
vt 0.181519 0.785889 0
vt 0.699707 0.949707 0
vt 0.700195 0.949707 0
vt 0.700195 0.961182 0
vt 0.699707 0.961182 0
vt 0.699219 0.949707 0
vt 0.699219 0.961182 0
vt 0.69873 0.949707 0
vt 0.69873 0.961182 0
vt 0.698242 0.949707 0
vt 0.698242 0.961182 0
vt 0.697754 0.961182 0
vt 0.697754 0.949707 0
vt 0.696777 0.949707 0
vt 0.696777 0.961182 0
vt 0.696289 0.949707 0
vt 0.696289 0.961182 0
vt 0.695801 0.949707 0
vt 0.695801 0.961182 0
vt 0.695312 0.949707 0
vt 0.695312 0.961182 0
vt 0.694824 0.949707 0
vt 0.694824 0.961182 0
vt 0.239136 0.663818 0
vt 0.24292 0.663818 0
vt 0.238281 0.665527 0
vt 0.238281 0.684814 0
vt 0.242554 0.687012 0
vt 0.239502 0.687012 0
vt 0.0292053 0.952393 0
vt 0.0292053 0.952972 0
vt 0.0177612 0.952972 0
vt 0.0177612 0.952393 0
vt 0.0177612 0.951843 0
vt 0.0292053 0.951843 0
vt 0.0292053 0.951263 0
vt 0.0177612 0.951263 0
vt 0.0177612 0.950714 0
vt 0.0292053 0.950714 0
vt 0.0292053 0.950134 0
vt 0.0177612 0.950134 0
vt 0.0292053 0.949585 0
vt 0.0177612 0.949585 0
vt 0.0292053 0.949005 0
vt 0.0177612 0.949005 0
vt 0.0177612 0.948456 0
vt 0.0292053 0.948456 0
vt 0.0177612 0.947876 0
vt 0.0292053 0.947876 0
vt 0.0292053 0.947327 0
vt 0.0177612 0.947327 0
vt 0.700195 0.971191 0
vt 0.702148 0.970291 0
vt 0.703125 0.972061 0
vt 0.701172 0.972977 0
vt 0.696777 0.971191 0
vt 0.700195 0.969116 0
vt 0.695801 0.972977 0
vt 0.701172 0.992188 0
vt 0.703125 0.992188 0
vt 0.703125 0.972977 0
vt 0.696777 0.969116 0
vt 0.693848 0.972061 0
vt 0.694824 0.970291 0
vt 0.693848 0.992188 0
vt 0.693848 0.972977 0
vt 0.695801 0.992188 0
vt 0.700195 0.994484 0
vt 0.696777 0.994484 0
vt 0.693848 0.993156 0
vt 0.70166 0.995453 0
vt 0.700195 0.996569 0
vt 0.696777 0.996569 0
vt 0.695312 0.995453 0
vt 0.703125 0.993156 0
vt 0.70752 0.994484 0
vt 0.70459 0.994484 0
vt 0.708496 0.992188 0
vt 0.708496 0.972977 0
vt 0.708008 0.971191 0
vt 0.704102 0.971191 0
vt 0.695312 0.947418 0
vt 0.694824 0.947418 0
vt 0.694824 0.935974 0
vt 0.695312 0.935974 0
vt 0.696289 0.935974 0
vt 0.696289 0.947418 0
vt 0.696777 0.947418 0
vt 0.696777 0.935974 0
vt 0.697266 0.935974 0
vt 0.697266 0.947418 0
vt 0.697754 0.947418 0
vt 0.697754 0.935974 0
vt 0.698242 0.947418 0
vt 0.698242 0.935974 0
vt 0.69873 0.947418 0
vt 0.69873 0.935974 0
vt 0.699707 0.935974 0
vt 0.699707 0.947418 0
vt 0.700195 0.935974 0
vt 0.700195 0.947418 0
vt 0.700684 0.947418 0
vt 0.700684 0.935974 0
vt 0.725098 0.995586 0
vt 0.72168 0.995586 0
vt 0.72168 0.993496 0
vt 0.725098 0.993496 0
vt 0.719727 0.994408 0
vt 0.71875 0.99263 0
vt 0.720703 0.991722 0
vt 0.726074 0.991722 0
vt 0.727051 0.994408 0
vt 0.71875 0.991722 0
vt 0.71875 0.972504 0
vt 0.720703 0.972504 0
vt 0.726074 0.972504 0
vt 0.728027 0.99263 0
vt 0.728027 0.972504 0
vt 0.728027 0.991722 0
vt 0.72168 0.970215 0
vt 0.725098 0.970215 0
vt 0.726562 0.969238 0
vt 0.728027 0.971542 0
vt 0.720215 0.969238 0
vt 0.72168 0.96814 0
vt 0.725098 0.96814 0
vt 0.71875 0.971542 0
vt 0.733398 0.972504 0
vt 0.733398 0.991722 0
vt 0.73291 0.993496 0
vt 0.729004 0.993496 0
vt 0.732422 0.970215 0
vt 0.729492 0.970215 0

# 34 vertex normals
vn -0.00392145 -0.999985 -0.00392145
vn -0.00392145 0.00392145 0.999985
vn -0.00392145 0.999985 -0.00392145
vn -0.00390182 0.901333 0.433108
vn -0.00392943 -0.899854 0.436174
vn -0.00392145 0.00392145 -0.999985
vn -0.0039287 -0.883972 -0.467523
vn -0.00390158 0.885672 -0.464295
vn -0.999985 0.00392145 -0.00392145
vn 0.999985 0.00392145 -0.00392145
vn -0.00390277 0.807885 -0.589327
vn -0.00391351 0.309172 -0.950998
vn -0.0039229 -0.302068 -0.953278
vn -0.00392749 -0.805148 -0.59306
vn -0.00394579 -0.8089 0.587933
vn -0.00395245 -0.304343 0.952554
vn -0.00394285 0.31149 0.950241
vn -0.00392072 0.811602 0.584197
vn -0.607274 0.427051 0.66996
vn 0.602292 0.429084 0.67315
vn 0.657363 0.736089 0.161389
vn -0.661799 0.732287 0.160555
vn -0.609297 -0.420612 0.672193
vn -0.665607 -0.728623 0.161479
vn -0.659136 0.72934 -0.18331
vn 0.654691 0.733097 -0.184254
vn 0.604318 -0.422628 0.675415
vn 0.661185 -0.732451 0.162327
vn 0.658466 -0.729438 -0.185317
vn -0.662898 -0.725658 -0.184356
vn -0.604828 0.409722 -0.68287
vn -0.606752 -0.403197 -0.685043
vn 0.599843 0.411657 -0.686095
vn 0.60177 -0.405113 -0.688299

# Mesh 'KTP_Button' with 192 faces
g KTP_Button
usemtl KTP_Metal
f  1/1/1 2/2/1 3/3/1
f  3/3/1 4/4/1 1/1/1
f  5/5/2 6/6/2 7/7/2
f  7/7/2 8/8/2 5/5/2
f  9/9/3 10/10/3 11/11/3
f  11/11/3 12/12/3 9/9/3
f  13/13/1 14/14/1 15/15/1
f  15/15/1 16/16/1 13/13/1
f  17/17/2 18/18/2 19/19/2
f  19/19/2 20/20/2 17/17/2
f  21/21/3 22/22/3 23/23/3
f  23/23/3 24/24/3 21/21/3
f  11/25/4 10/10/4 5/5/4
f  5/5/4 8/26/4 11/25/4
f  7/27/5 6/6/5 2/2/5
f  2/2/5 1/28/5 7/27/5
f  18/18/4 17/29/4 24/30/4
f  24/30/4 23/23/4 18/18/4
f  19/19/5 15/15/5 14/31/5
f  14/31/5 20/32/5 19/19/5
f  25/33/6 26/34/6 27/35/6
f  27/35/6 28/36/6 25/33/6
f  29/37/6 30/38/6 31/39/6
f  31/39/6 32/40/6 29/37/6
f  13/41/7 16/16/7 28/36/7
f  28/36/7 27/42/7 13/41/7
f  22/22/8 21/43/8 26/44/8
f  26/44/8 25/33/8 22/22/8
f  32/40/7 31/45/7 4/46/7
f  4/46/7 3/3/7 32/40/7
f  29/37/8 9/9/8 12/47/8
f  12/47/8 30/48/8 29/37/8
f  19/19/9 18/18/9 23/23/9
f  23/23/9 15/15/9 19/19/9
f  15/15/9 23/23/9 22/22/9
f  22/22/9 16/16/9 15/15/9
f  16/16/9 22/22/9 25/33/9
f  25/33/9 28/36/9 16/16/9
f  27/49/10 26/50/10 21/21/10
f  21/21/10 13/51/10 27/49/10
f  13/51/10 21/21/10 24/24/10
f  24/24/10 14/52/10 13/51/10
f  20/53/10 14/52/10 24/24/10
f  24/24/10 17/54/10 20/53/10
f  33/55/11 34/56/3 35/57/3
f  35/57/3 36/58/11 33/55/11
f  37/59/12 33/55/11 36/58/11
f  36/58/11 38/60/12 37/59/12
f  39/61/13 37/59/12 38/60/12
f  38/60/12 40/62/13 39/61/13
f  41/63/14 39/61/13 40/62/13
f  40/62/13 42/64/14 41/63/14
f  41/63/14 42/64/14 43/65/1
f  43/65/1 44/66/1 41/63/14
f  45/67/15 44/66/1 43/65/1
f  43/65/1 46/68/15 45/67/15
f  47/69/16 45/67/15 46/68/15
f  46/68/15 48/70/16 47/69/16
f  49/71/17 47/69/16 48/70/16
f  48/70/16 50/72/17 49/71/17
f  51/73/18 49/71/17 50/72/17
f  50/72/17 52/74/18 51/73/18
f  34/75/3 51/73/18 52/74/18
f  52/74/18 35/76/3 34/75/3
f  9/9/9 29/37/9 32/40/9
f  32/40/9 3/3/9 9/9/9
f  10/10/9 9/9/9 3/3/9
f  3/3/9 2/2/9 10/10/9
f  10/10/9 2/2/9 6/6/9
f  6/6/9 5/5/9 10/10/9
f  53/77/11 54/78/3 55/79/3
f  55/79/3 56/80/11 53/77/11
f  57/81/12 53/77/11 56/80/11
f  56/80/11 58/82/12 57/81/12
f  59/83/13 57/81/12 58/82/12
f  58/82/12 60/84/13 59/83/13
f  61/85/14 59/83/13 60/84/13
f  60/84/13 62/86/14 61/85/14
f  61/85/14 62/86/14 63/87/1
f  63/87/1 64/88/1 61/85/14
f  65/89/15 64/88/1 63/87/1
f  63/87/1 66/90/15 65/89/15
f  67/91/16 65/89/15 66/90/15
f  66/90/15 68/92/16 67/91/16
f  69/93/17 67/91/16 68/92/16
f  68/92/16 70/94/17 69/93/17
f  71/95/18 69/93/17 70/94/17
f  70/94/17 72/96/18 71/95/18
f  54/97/3 71/95/18 72/96/18
f  72/96/18 55/98/3 54/97/3
f  8/99/10 7/100/10 1/1/10
f  1/1/10 11/101/10 8/99/10
f  12/102/10 11/101/10 1/1/10
f  1/1/10 4/4/10 12/102/10
f  12/102/10 4/4/10 31/103/10
f  31/103/10 30/104/10 12/102/10
f  73/105/11 74/106/3 75/107/3
f  75/107/3 76/108/11 73/105/11
f  73/105/11 76/108/11 77/109/12
f  77/109/12 78/110/12 73/105/11
f  79/111/13 78/110/12 77/109/12
f  77/109/12 80/112/13 79/111/13
f  79/111/13 80/112/13 81/113/14
f  81/113/14 82/114/14 79/111/13
f  83/115/1 82/114/14 81/113/14
f  81/113/14 84/116/1 83/115/1
f  85/117/15 83/115/1 84/116/1
f  84/116/1 86/118/15 85/117/15
f  87/119/16 85/117/15 86/118/15
f  86/118/15 88/120/16 87/119/16
f  87/119/16 88/120/16 89/121/17
f  89/121/17 90/122/17 87/119/16
f  90/122/17 89/121/17 91/123/18
f  91/123/18 92/124/18 90/122/17
f  74/125/3 92/124/18 91/123/18
f  91/123/18 75/126/3 74/125/3
f  93/127/19 94/128/20 95/129/21
f  95/129/21 96/130/22 93/127/19
f  97/131/23 93/127/19 96/130/22
f  94/132/20 93/127/19 97/131/23
f  96/130/22 98/133/24 97/131/23
f  98/133/24 96/130/22 99/134/25
f  100/135/26 99/134/25 96/130/22
f  96/130/22 95/136/21 100/135/26
f  97/131/23 101/137/27 94/132/20
f  102/138/28 101/139/27 97/131/23
f  97/131/23 98/133/24 102/138/28
f  103/140/29 102/141/28 98/133/24
f  98/133/24 104/142/30 103/140/29
f  99/134/25 104/142/30 98/133/24
f  104/142/30 99/134/25 105/143/31
f  105/143/31 106/144/32 104/142/30
f  103/145/29 104/142/30 106/144/32
f  107/146/33 105/143/31 99/134/25
f  105/143/31 107/147/33 108/148/34
f  108/148/34 106/144/32 105/143/31
f  106/144/32 108/149/34 103/145/29
f  99/134/25 100/150/26 107/146/33
f  108/151/34 107/152/33 100/135/26
f  100/135/26 103/153/29 108/151/34
f  103/153/29 100/135/26 95/136/21
f  95/136/21 102/154/28 103/153/29
f  101/155/27 102/154/28 95/136/21
f  95/136/21 94/156/20 101/155/27
f  109/157/11 110/158/3 111/159/3
f  111/159/3 112/160/11 109/157/11
f  109/157/11 112/160/11 113/161/12
f  113/161/12 114/162/12 109/157/11
f  115/163/13 114/162/12 113/161/12
f  113/161/12 116/164/13 115/163/13
f  115/163/13 116/164/13 117/165/14
f  117/165/14 118/166/14 115/163/13
f  119/167/1 118/166/14 117/165/14
f  117/165/14 120/168/1 119/167/1
f  121/169/15 119/167/1 120/168/1
f  120/168/1 122/170/15 121/169/15
f  123/171/16 121/169/15 122/170/15
f  122/170/15 124/172/16 123/171/16
f  123/171/16 124/172/16 125/173/17
f  125/173/17 126/174/17 123/171/16
f  126/174/17 125/173/17 127/175/18
f  127/175/18 128/176/18 126/174/17
f  110/177/3 128/176/18 127/175/18
f  127/175/18 111/178/3 110/177/3
f  129/179/19 130/180/23 131/181/27
f  131/181/27 132/182/20 129/179/19
f  131/181/27 130/183/23 133/184/24
f  133/184/24 134/185/28 131/181/27
f  132/182/20 131/181/27 134/185/28
f  134/185/28 135/186/21 132/182/20
f  129/187/19 132/182/20 135/186/21
f  134/185/28 133/188/24 136/189/30
f  136/189/30 137/190/29 134/185/28
f  134/185/28 137/190/29 138/191/26
f  138/191/26 135/186/21 134/185/28
f  135/186/21 139/192/22 129/187/19
f  135/186/21 138/191/26 140/193/25
f  140/193/25 139/194/22 135/186/21
f  138/191/26 137/190/29 141/195/34
f  141/195/34 142/196/33 138/191/26
f  138/191/26 142/196/33 143/197/31
f  143/197/31 140/198/25 138/191/26
f  144/199/32 141/195/34 137/190/29
f  141/195/34 144/200/32 143/201/31
f  143/201/31 142/196/33 141/195/34
f  137/190/29 136/202/30 144/199/32
f  139/194/22 140/193/25 136/203/30
f  136/203/30 133/204/24 139/194/22
f  139/194/22 133/204/24 130/205/23
f  130/205/23 129/206/19 139/194/22
f  144/207/32 136/203/30 140/193/25
f  140/193/25 143/208/31 144/207/32

