# File produced by Open Asset Import Library (http://www.assimp.sf.net)
# (assimp v3.1.187496374)

mtllib KTP_Door.obj.mtl

# 56 vertex positions
v  -72.5685 -4.62322 29.9245
v  -73.5985 -4.62322 29.9245
v  -73.5985 -4.75783 29.5102
v  -72.5685 -4.75783 29.5102
v  -72.5685 -4.75783 30.3388
v  -73.5985 -4.75783 30.3388
v  -72.5685 -5.11025 30.5948
v  -73.5985 -5.11025 30.5948
v  -72.5685 -5.33611 30.5948
v  -72.5685 -5.54587 30.5948
v  -73.5985 -5.54587 30.5948
v  -73.5985 -5.33611 30.5948
v  -72.5685 -5.11025 29.2541
v  -73.5985 -5.11025 29.2541
v  -73.5985 -5.33611 29.2541
v  -72.5685 -5.33611 29.2541
v  -73.5985 -5.54587 29.2541
v  -72.5685 -5.54587 29.2541
v  -74.1497 -2.50002 106.076
v  -0.0416901 -2.5 0
v  -0.0416901 -2.5 106.076
v  -74.1497 -2.50002 -1.2207e-05
v  -0.0416901 0 0
v  -0.0416901 -7.10543e-15 106.076
v  -74.1497 -2.44141e-05 106.076
v  -74.1497 -2.44141e-05 -1.2207e-05
v  -72.9613 -1.76921 104.887
v  -1.23013 -1.76919 1.18844
v  -72.9613 -1.76921 1.18843
v  -1.23013 -1.76919 104.887
v  -1.23013 0 1.18844
v  -1.23013 -7.10543e-15 104.887
v  -72.9613 -2.44141e-05 1.18843
v  -72.9613 -2.44141e-05 104.887
v  -72.5685 -2.20848 27.7224
v  -72.5685 -5.33611 27.7224
v  -73.5985 -5.33611 27.7224
v  -73.5985 -2.20848 27.7224
v  -73.5985 -2.20848 32.0689
v  -72.5685 -5.33611 32.0689
v  -72.5685 -2.20848 32.0689
v  -73.5985 -5.33611 32.0689
v  -72.5685 -6.33611 28.4502
v  -72.5685 -5.8983 29.5102
v  -72.5685 -6.03291 29.9245
v  -72.5685 -6.33611 31.3412
v  -72.5685 -5.8983 30.3388
v  -72.5685 -6.98191 30.4266
v  -72.5685 -6.98191 29.3647
v  -73.5985 -6.33611 28.4502
v  -73.5985 -6.33611 31.3412
v  -73.5985 -6.98191 29.3647
v  -73.5985 -6.98191 30.4266
v  -73.5985 -5.8983 30.3388
v  -73.5985 -6.03291 29.9245
v  -73.5985 -5.8983 29.5102

# 82 UV coordinates
vt 0.791016 0.305176 0
vt 0.291992 0.970688 0
vt 0.300293 0.970688 0
vt 0.601074 0.305176 0
vt 0.588379 0.0180664 0
vt 0.300293 0.984894 0
vt 0.588379 0.29248 0
vt 0.291992 0.984894 0
vt 0.791016 0.00537109 0
vt 0.298828 0.96106 0
vt 0.302246 0.962158 0
vt 0.291992 0.982178 0
vt 0.601074 0.000976562 0
vt 0.300293 0.967987 0
vt 0.300293 0.963928 0
vt 0.791016 0.000976562 0
vt 0.302979 0.966064 0
vt 0.291992 0.956482 0
vt 0.598145 0.29541 0
vt 0.793945 0.0151367 0
vt 0.793945 0.29541 0
vt 0.598145 0.0151367 0
vt 0.800781 0.0151367 0
vt 0.800781 0.29541 0
vt 0.598145 0.302246 0
vt 0.793945 0.302246 0
vt 0.591309 0.29541 0
vt 0.591309 0.0151367 0
vt 0.598145 0.00878906 0
vt 0.793945 0.00878906 0
vt 0.998047 0.29248 0
vt 0.808594 0.0180664 0
vt 0.998047 0.0180664 0
vt 0.808594 0.29248 0
vt 0.803711 0.0180664 0
vt 0.803711 0.29248 0
vt 0.601074 0.00537109 0
vt 0.583496 0.29248 0
vt 0.583496 0.0180664 0
vt 0.791016 0.310059 0
vt 0.601074 0.310059 0
vt 0.291992 0.967987 0
vt 0.300293 0.982178 0
vt 0.301025 0.963928 0
vt 0.299805 0.963928 0
vt 0.298828 0.963257 0
vt 0.301758 0.963257 0
vt 0.302979 0.958405 0
vt 0.301758 0.96106 0
vt 0.301025 0.960388 0
vt 0.300293 0.956482 0
vt 0.304688 0.960815 0
vt 0.300293 0.960388 0
vt 0.299805 0.960388 0
vt 0.298584 0.962158 0
vt 0.304688 0.963623 0
vt 0.304688 0.970413 0
vt 0.302002 0.968506 0
vt 0.302979 0.97261 0
vt 0.304688 0.982452 0
vt 0.302002 0.984375 0
vt 0.302979 0.980255 0
vt 0.306885 0.973465 0
vt 0.304688 0.975037 0
vt 0.305176 0.971039 0
vt 0.305176 0.981827 0
vt 0.304688 0.977829 0
vt 0.306885 0.979401 0
vt 0.307373 0.977829 0
vt 0.307373 0.975037 0
vt 0.302246 0.976501 0
vt 0.301758 0.975418 0
vt 0.301025 0.974731 0
vt 0.301758 0.9776 0
vt 0.301025 0.978287 0
vt 0.300293 0.978287 0
vt 0.299805 0.978287 0
vt 0.298828 0.9776 0
vt 0.298584 0.976501 0
vt 0.298828 0.975418 0
vt 0.299805 0.974731 0
vt 0.300293 0.974731 0

# 16 vertex normals
vn -0.00395245 -0.952554 0.304343
vn -0.00394285 -0.950241 -0.31149
vn -0.00392072 -0.584197 -0.811602
vn -0.00392145 0.00392145 -0.999985
vn -0.00392145 0.00392145 0.999985
vn -0.00392145 -0.999985 -0.00392145
vn 0.999985 0.00392145 -0.00392145
vn -0.999985 0.00392145 -0.00392145
vn -0.00392145 0.999985 -0.00392145
vn -0.00394579 -0.587933 0.8089
vn -0.00392072 -0.811603 -0.584197
vn -0.00393869 -0.815321 0.578996
vn -0.00390277 0.589327 -0.807885
vn -0.00391351 0.950998 -0.309172
vn -0.0039229 0.953278 0.302068
vn -0.00392749 0.59306 0.805148

# Mesh 'KTP_Door' with 106 faces
g KTP_Door
usemtl KTP_Metal
f  1/1/1 2/2/1 3/3/1
f  1/1/1 3/3/1 4/4/1
f  5/5/2 6/6/2 2/2/2
f  5/5/2 2/2/2 1/1/2
f  7/7/3 8/8/3 6/6/3
f  7/7/3 6/6/3 5/5/3
f  9/9/4 8/8/4 7/7/4
f  10/10/4 11/11/4 12/12/4
f  13/13/5 14/14/5 15/15/5
f  16/16/5 17/17/5 18/18/5
f  19/19/6 20/20/6 21/21/6
f  20/20/6 19/19/6 22/22/6
f  21/21/7 23/23/7 24/24/7
f  23/23/7 21/21/7 20/20/7
f  25/25/5 21/21/5 24/26/5
f  21/21/5 25/25/5 19/19/5
f  22/22/8 19/19/8 25/27/8
f  25/27/8 26/28/8 22/22/8
f  20/20/4 22/22/4 26/29/4
f  20/20/4 26/29/4 23/30/4
f  27/31/9 28/32/9 29/33/9
f  28/32/9 27/31/9 30/34/9
f  24/24/9 23/23/9 31/35/9
f  24/24/9 31/35/9 32/36/9
f  33/37/9 31/9/9 23/30/9
f  33/37/9 23/30/9 26/29/9
f  25/27/9 33/5/9 26/28/9
f  33/5/9 25/27/9 34/7/9
f  25/25/9 24/26/9 32/1/9
f  25/25/9 32/1/9 34/4/9
f  32/36/8 31/35/8 30/34/8
f  30/34/8 31/35/8 28/32/8
f  33/37/5 28/16/5 31/9/5
f  28/16/5 33/37/5 29/13/5
f  27/38/7 29/39/7 34/7/7
f  34/7/7 29/39/7 33/5/7
f  30/40/4 27/41/4 34/4/4
f  30/40/4 34/4/4 32/1/4
f  35/42/4 36/14/4 37/3/4
f  37/3/4 38/2/4 35/42/4
f  39/12/5 40/6/5 41/8/5
f  40/6/5 39/12/5 42/43/5
f  36/14/7 18/44/7 43/17/7
f  18/44/7 36/14/7 16/15/7
f  16/15/7 36/14/7 13/45/7
f  36/14/7 4/46/7 13/45/7
f  4/46/7 36/14/7 35/42/7
f  44/47/7 43/17/7 18/44/7
f  45/11/7 43/17/7 44/47/7
f  46/48/7 45/11/7 47/49/7
f  46/48/7 43/17/7 45/11/7
f  46/48/7 10/50/7 40/51/7
f  10/50/7 46/48/7 47/49/7
f  43/17/7 46/48/7 48/52/7
f  40/51/7 10/50/7 9/53/7
f  7/54/7 41/18/7 40/51/7
f  40/51/7 9/53/7 7/54/7
f  41/18/7 7/54/7 5/10/7
f  41/18/7 1/55/7 35/42/7
f  1/55/7 41/18/7 5/10/7
f  35/42/7 1/55/7 4/46/7
f  43/17/7 48/52/7 49/56/7
f  43/57/3 37/3/3 36/58/3
f  37/3/3 43/57/3 50/59/3
f  42/43/10 46/60/10 40/61/10
f  46/60/10 42/43/10 51/62/10
f  49/63/11 52/64/11 43/65/11
f  52/64/11 50/59/11 43/65/11
f  46/66/12 51/62/12 53/67/12
f  46/66/12 53/67/12 48/68/12
f  48/69/6 53/67/6 52/64/6
f  48/69/6 52/64/6 49/70/6
f  3/3/10 13/13/10 4/4/10
f  13/13/10 3/3/10 14/14/10
f  9/9/4 12/12/4 8/8/4
f  10/10/4 12/12/4 9/9/4
f  47/54/13 54/49/13 11/11/13
f  47/54/13 11/11/13 10/10/13
f  54/49/14 47/54/14 45/53/14
f  54/49/14 45/53/14 55/50/14
f  44/51/15 55/50/15 45/53/15
f  55/50/15 44/51/15 56/48/15
f  18/18/16 17/17/16 56/48/16
f  18/18/16 56/48/16 44/51/16
f  13/13/5 15/15/5 16/16/5
f  16/16/5 15/15/5 17/17/5
f  53/67/8 50/59/8 52/64/8
f  51/62/8 50/59/8 53/67/8
f  50/59/8 51/62/8 55/71/8
f  50/59/8 55/71/8 56/72/8
f  56/72/8 17/73/8 50/59/8
f  17/73/8 37/3/8 50/59/8
f  55/71/8 51/62/8 54/74/8
f  54/74/8 51/62/8 11/75/8
f  42/43/8 11/75/8 51/62/8
f  11/75/8 42/43/8 12/76/8
f  42/43/8 8/77/8 12/76/8
f  42/43/8 6/78/8 8/77/8
f  39/12/8 6/78/8 42/43/8
f  2/79/8 6/78/8 39/12/8
f  38/2/8 2/79/8 39/12/8
f  2/79/8 38/2/8 3/80/8
f  38/2/8 37/3/8 14/81/8
f  3/80/8 38/2/8 14/81/8
f  14/81/8 37/3/8 15/82/8
f  37/3/8 17/73/8 15/82/8

